<svg width="651" height="666" viewBox="0 0 651 666" fill="none" xmlns="http://www.w3.org/2000/svg">
<path d="M305.5 9.1558L331.274 8.658L331.107 0L305.333 0.497797L305.5 9.1558Z" fill="#181D24"/>
<path d="M331.398 15.1055L308.397 44.7583L307.834 15.5606L298.077 15.749L298.965 61.8022L306.605 61.6547L329.604 31.9097L330.169 61.1995L339.926 61.0111L339.038 14.9579L331.398 15.1055Z" fill="#181D24"/>
<path d="M257.414 52.1742L274.97 19.0022L282.471 17.5409L291.268 62.7536L281.689 64.6199L276.094 35.8645L258.555 69.127L251.054 70.5883L242.257 25.3755L251.836 23.5093L257.414 52.1742Z" fill="#181D24"/>
<path d="M218.232 32.7246L232.632 66.4399L216.716 73.2461L202.316 39.5309L193.173 43.4409L207.573 77.1561L191.657 83.9623L177.258 50.2471L168.114 54.1571L186.205 96.5129L245.465 71.1705L227.375 28.8147L218.232 32.7246Z" fill="#181D24"/>
<path fill-rule="evenodd" clip-rule="evenodd" d="M173.764 98.9169C172.688 105.43 169.381 110.671 163.842 114.641C158.304 118.61 152.28 120.057 145.772 118.98C139.178 117.89 133.915 114.598 129.983 109.106C126.052 103.614 124.631 97.569 125.721 90.9707C126.797 84.4581 130.104 79.2169 135.642 75.2471C141.181 71.2773 147.204 69.8306 153.713 70.9071C160.307 71.9978 165.57 75.2892 169.501 80.7813C173.433 86.2734 174.854 92.3186 173.764 98.9169ZM138.067 103.313C140.497 106.708 143.639 108.724 147.493 109.361C151.346 109.999 154.92 109.137 158.213 106.777C161.506 104.416 163.471 101.308 164.108 97.4519C164.745 93.5958 163.849 89.9702 161.418 86.5751C158.988 83.1799 155.846 81.1637 151.992 80.5263C148.138 79.8889 144.565 80.7504 141.272 83.1108C137.979 85.4712 136.013 88.5795 135.376 92.4356C134.739 96.2918 135.636 99.9174 138.067 103.313Z" fill="#181D24"/>
<path fill-rule="evenodd" clip-rule="evenodd" d="M108.113 106.296C101.558 106.309 96.1162 108.578 91.787 113.103C86.9484 118.16 85.1189 123.847 86.2983 130.163L81.5101 125.577L74.6342 132.763L121.187 177.357L128.062 170.171L110.04 152.906C116.396 153.723 121.972 151.625 126.768 146.612C131.139 142.043 133.19 136.525 132.919 130.058C132.647 123.592 130.051 118.002 125.13 113.288C120.253 108.616 114.581 106.285 108.113 106.296ZM118.836 141.182C115.949 144.198 112.554 145.749 108.649 145.835C104.655 145.835 101.151 144.391 98.1359 141.503C95.0768 138.572 93.5046 135.153 93.4195 131.246C93.29 127.296 94.6684 123.813 97.5545 120.796C100.441 117.779 103.858 116.249 107.808 116.207C111.713 116.121 115.195 117.544 118.254 120.475C121.313 123.405 122.908 126.845 123.037 130.795C123.122 134.703 121.722 138.165 118.836 141.182Z" fill="#181D24"/>
<path fill-rule="evenodd" clip-rule="evenodd" d="M96.3263 170.952C97.6868 177.411 96.5069 183.496 92.7867 189.207C89.0664 194.918 83.9788 198.454 77.5238 199.816C70.984 201.195 64.886 200.04 59.2301 196.351C53.5741 192.662 50.0569 187.545 48.6785 181.001C47.318 174.542 48.4978 168.457 52.2181 162.746C55.9384 157.035 61.026 153.499 67.4809 152.138C74.0208 150.758 80.1188 151.913 85.7747 155.602C91.4306 159.291 94.9478 164.408 96.3263 170.952ZM64.6597 188.016C68.1561 190.297 71.8153 191.034 75.6373 190.228C79.4593 189.422 82.4763 187.321 84.6884 183.925C86.9004 180.529 87.6037 176.919 86.7981 173.095C85.9925 169.27 83.8415 166.218 80.3451 163.937C76.8487 161.657 73.1895 160.92 69.3675 161.726C65.5455 162.532 62.5284 164.633 60.3164 168.028C58.1043 171.424 57.4011 175.034 58.2067 178.859C59.0123 182.683 61.1633 185.736 64.6597 188.016Z" fill="#181D24"/>
<path d="M78.6515 209.058L50.189 215.525L36.0619 191.56L31.4634 202.216L40.6209 217.713L23.0693 221.669L18.5073 232.241L45.5425 226.061L60.4034 251.346L65.002 240.69L55.1107 223.873L74.0895 219.63L78.6515 209.058Z" fill="#181D24"/>
<path d="M2.64407 301.341L9.84643 261.921L19.2651 263.644L16.5663 278.415L52.4296 284.976L50.6414 294.763L14.7781 288.203L12.0627 303.064L2.64407 301.341Z" fill="#181D24"/>
<path d="M40.8869 346.204C45.6933 341.682 48.2036 335.953 48.4177 329.017C48.5541 324.597 47.6056 320.512 45.5721 316.763C43.5405 312.952 40.7146 310.007 37.0944 307.929L31.953 316.342C34.1274 317.515 35.8246 319.226 37.0447 321.476C38.2053 323.663 38.7439 326.106 38.6606 328.807C38.5355 332.859 37.05 336.223 34.2041 338.9C31.2988 341.514 27.8216 342.758 23.7727 342.633C19.7238 342.508 16.33 341.051 13.5914 338.263C10.916 335.415 9.64087 331.966 9.76593 327.914C9.8512 325.152 10.5702 322.747 11.9229 320.7C13.2162 318.589 14.9832 317.046 17.2239 316.071L12.5191 307.354C8.84273 309.084 5.87414 311.757 3.61329 315.374C1.35244 318.99 0.152852 323.039 0.0145308 327.521C-0.199583 334.457 1.95256 340.33 6.47096 345.14C10.9299 349.886 16.5948 352.365 23.4657 352.578C30.214 352.786 36.021 350.662 40.8869 346.204Z" fill="#181D24"/>
<path d="M630.116 377.05L648.371 378.603L647.528 388.517L601.661 384.613L602.504 374.7L620.759 376.253L622.545 355.233L604.29 353.679L605.133 343.766L651 347.669L650.157 357.583L631.902 356.029L630.116 377.05Z" fill="#181D24"/>
<path fill-rule="evenodd" clip-rule="evenodd" d="M629.345 436.652L635.654 438.363L633.054 447.966L588.624 435.918L591.224 426.315L597.622 428.05C593.566 423.068 592.453 417.199 594.283 410.441C595.937 404.335 599.601 399.729 605.275 396.623C610.949 393.517 617.074 392.855 623.65 394.638C630.225 396.421 635.178 400.087 638.508 405.635C641.839 411.183 642.677 417.01 641.024 423.115C639.194 429.873 635.301 434.385 629.345 436.652ZM609.746 405.471C606.358 407.416 604.118 410.404 603.027 414.434C601.935 418.465 602.361 422.176 604.304 425.566C606.307 428.973 609.352 431.23 613.439 432.339C617.527 433.447 621.265 433.029 624.653 431.084C628.101 429.156 630.37 426.176 631.462 422.145C632.553 418.114 632.098 414.396 630.095 410.989C628.152 407.599 625.136 405.349 621.049 404.241C617.021 403.149 613.253 403.559 609.746 405.471Z" fill="#181D24"/>
<path d="M602.014 512.472L569.672 495.239L577.807 479.952L610.149 497.185L614.823 488.403L582.481 471.17L590.616 455.883L622.958 473.117L627.631 464.335L587.001 442.685L556.71 499.604L597.341 521.254L602.014 512.472Z" fill="#181D24"/>
<path fill-rule="evenodd" clip-rule="evenodd" d="M558.377 557.847L563.338 562.106L556.864 569.657L521.927 539.665L528.401 532.113L533.432 536.432C531.91 530.19 533.427 524.412 537.983 519.098C542.099 514.297 547.386 511.714 553.844 511.351C560.302 510.987 566.116 513.025 571.286 517.464C576.457 521.903 579.354 527.343 579.977 533.785C580.6 540.227 578.853 545.848 574.737 550.65C570.181 555.963 564.728 558.362 558.377 557.847ZM554.079 521.263C550.185 521.561 546.878 523.295 544.161 526.465C541.443 529.635 540.234 533.168 540.531 537.065C540.876 541.002 542.655 544.35 545.869 547.11C549.084 549.869 552.638 551.099 556.533 550.801C560.474 550.543 563.803 548.829 566.521 545.66C569.238 542.49 570.425 538.937 570.08 535C569.783 531.103 568.027 527.774 564.812 525.015C561.645 522.296 558.067 521.045 554.079 521.263Z" fill="#181D24"/>
<path d="M466.566 581.998L497.224 589.201L493.563 619.314L503.52 612.341L506.487 585.414L518.153 602.094L526.299 596.389L499.905 558.651L491.759 564.356L503.953 581.791L476.296 575.184L466.566 581.998Z" fill="#181D24"/>
<path fill-rule="evenodd" clip-rule="evenodd" d="M431.408 605.178C433.634 598.964 437.828 594.402 443.989 591.491C450.149 588.581 456.334 588.239 462.544 590.467C468.835 592.724 473.422 596.907 476.305 603.016C479.188 609.125 479.501 615.328 477.245 621.623C475.019 627.837 470.825 632.399 464.665 635.309C458.504 638.22 452.319 638.561 446.109 636.334C439.818 634.076 435.231 629.893 432.348 623.784C429.465 617.675 429.152 611.473 431.408 605.178ZM467.314 607.264C465.532 603.488 462.802 600.94 459.126 599.621C455.449 598.302 451.779 598.508 448.116 600.238C444.453 601.969 441.962 604.674 440.644 608.353C439.325 612.032 439.557 615.76 441.339 619.536C443.121 623.313 445.851 625.861 449.527 627.18C453.204 628.499 456.874 628.293 460.537 626.562C464.2 624.832 466.691 622.127 468.009 618.448C469.328 614.769 469.096 611.041 467.314 607.264Z" fill="#181D24"/>
<path d="M384.384 660.744L394.188 658.205L401.783 634.256L420.035 651.511L429.84 648.972L418.306 604.379L408.948 606.803L416.514 636.056L398.509 619.022L397.35 619.322L389.798 643.069L382.209 613.727L372.85 616.151L384.384 660.744Z" fill="#181D24"/>
<path fill-rule="evenodd" clip-rule="evenodd" d="M331.768 658.858L332.172 665.386L322.247 666L319.408 620.026L329.332 619.412L329.741 626.032C333.156 620.591 338.355 617.654 345.338 617.222C351.648 616.832 357.183 618.828 361.943 623.21C366.702 627.592 369.293 633.185 369.713 639.989C370.133 646.794 368.251 652.663 364.067 657.599C359.883 662.534 354.636 665.197 348.326 665.587C341.342 666.019 335.823 663.776 331.768 658.858ZM355.001 630.285C352.073 627.697 348.527 626.532 344.361 626.789C340.196 627.047 336.82 628.64 334.233 631.569C331.651 634.56 330.49 638.17 330.752 642.399C331.013 646.629 332.607 650.038 335.534 652.626C338.465 655.275 342.013 656.471 346.179 656.213C350.345 655.955 353.719 654.331 356.301 651.341C358.887 648.412 360.05 644.833 359.789 640.603C359.531 636.435 357.935 632.995 355.001 630.285Z" fill="#181D24"/>
<path d="M274.508 661.324L276.762 643.131L297.685 645.726L295.431 663.919L305.299 665.143L310.961 619.431L301.093 618.207L298.84 636.4L277.917 633.805L280.17 615.612L270.303 614.388L264.641 660.1L274.508 661.324Z" fill="#181D24"/>
<path fill-rule="evenodd" clip-rule="evenodd" d="M210.869 644.835L221.785 609.835L215.897 607.996L222.369 587.242L231.685 590.151L228.01 601.935L258.154 611.348L261.829 599.564L271.145 602.473L264.673 623.227L259.312 621.553C255.446 624.464 252.444 629.349 250.305 636.208L244.353 655.291L210.869 644.835ZM248.853 618.288L231.101 612.744L222.9 639.038L237.753 643.676L240.989 633.299C242.964 626.967 245.585 621.964 248.853 618.288Z" fill="#181D24"/>
<path fill-rule="evenodd" clip-rule="evenodd" d="M161.445 620.895L164.517 615.122C165.398 621.436 168.927 626.239 175.103 629.53C180.683 632.503 186.546 632.983 192.694 630.971C198.841 628.958 203.516 624.943 206.718 618.926C209.92 612.909 210.64 606.787 208.878 600.56C207.115 594.332 203.444 589.732 197.864 586.759C191.689 583.468 185.722 583.246 179.965 586.093L183.081 580.238L174.305 575.562L152.668 616.219L161.445 620.895ZM192.026 594.398C195.71 596.361 198.121 599.212 199.261 602.95C200.343 606.797 199.903 610.563 197.942 614.25C195.951 617.99 193.088 620.43 189.352 621.571C185.587 622.765 181.862 622.381 178.179 620.418C174.495 618.455 172.097 615.578 170.987 611.785C169.847 608.047 170.272 604.307 172.263 600.567C174.253 596.826 177.131 594.359 180.896 593.164C184.632 592.024 188.342 592.435 192.026 594.398Z" fill="#181D24"/>
<path d="M136.078 542.971C141.192 547.66 143.892 553.302 144.18 559.896C144.381 566.495 142.2 572.284 137.639 577.265C132.995 582.336 127.421 585.014 120.917 585.298C114.326 585.586 108.474 583.385 103.361 578.696C100.058 575.667 97.7743 572.116 96.5107 568.041C95.247 563.967 95.1596 559.972 96.2487 556.055L105.92 558.176C105.196 560.512 105.212 562.858 105.966 565.216C106.634 567.578 107.986 569.692 110.022 571.559C113.009 574.298 116.453 575.582 120.355 575.412C124.254 575.154 127.572 573.532 130.308 570.543C133.045 567.555 134.372 564.106 134.288 560.198C134.118 556.293 132.54 552.971 129.553 550.233C127.562 548.407 125.36 547.221 122.947 546.674C120.447 546.131 118.043 546.301 115.736 547.185L112.72 537.797C116.656 536.408 120.73 536.186 124.942 537.133C129.108 538.037 132.82 539.984 136.078 542.971Z" fill="#181D24"/>
<path fill-rule="evenodd" clip-rule="evenodd" d="M105.645 509.403C101.478 504.009 96.1228 500.894 89.5794 500.056C82.9499 499.206 76.9645 500.848 71.623 504.98C66.2815 509.111 63.1864 514.494 62.3378 521.128C61.5002 527.675 63.1648 533.646 67.3315 539.039C71.4983 544.433 76.8533 547.549 83.3967 548.387C90.0262 549.236 96.0117 547.595 101.353 543.463C106.695 539.331 109.79 533.948 110.638 527.315C111.476 520.767 109.811 514.796 105.645 509.403ZM100.969 525.945C100.473 529.822 98.574 533.037 95.272 535.591C91.97 538.145 88.3818 539.174 84.5074 538.678C80.633 538.182 77.4571 536.33 74.9796 533.123C72.502 529.916 71.5113 526.375 72.0072 522.498C72.5031 518.621 74.4021 515.405 77.7041 512.851C81.0061 510.297 84.5943 509.268 88.4687 509.764C92.3431 510.26 95.519 512.112 97.9966 515.319C100.474 518.526 101.465 522.068 100.969 525.945Z" fill="#181D24"/>
<path d="M54.5933 474.548C54.196 469.175 56.2367 465.274 60.7153 462.845C64.2227 460.942 67.9116 460.793 71.782 462.396C75.5985 464.029 78.8375 467.301 81.4991 472.215C85.9156 480.368 85.6613 487.631 80.7363 494.005L72.6667 489.161C75.9239 485.508 76.2364 481.252 73.6041 476.392C72.3757 474.125 70.9518 472.591 69.3325 471.793C67.6593 471.024 66.0403 471.064 64.4755 471.913C63.0725 472.674 62.2442 473.787 61.9905 475.251C61.6829 476.746 62.0263 478.411 63.0207 480.246L66.1356 485.997L58.4464 490.167L56.1212 485.875C55.156 484.093 54.0054 482.936 52.6696 482.403C51.2505 481.845 49.8125 481.961 48.3556 482.751C46.9527 483.512 46.1266 484.694 45.8775 486.296C45.5744 487.928 45.9347 489.688 46.9583 491.578C49.1519 495.627 52.4535 497.469 56.8631 497.104L56.6768 506.426C49.0247 506.734 43.2244 503.243 39.2759 495.954C36.819 491.419 36.0342 487.199 36.9213 483.295C37.7252 479.366 39.7729 476.509 43.0644 474.724C47.1114 472.529 50.9544 472.47 54.5933 474.548Z" fill="#181D24"/>
<path fill-rule="evenodd" clip-rule="evenodd" d="M47.4473 417.541L12.8594 429.644L24.4387 462.776L43.2968 456.177C50.0754 453.805 55.7846 453.303 60.4245 454.672L62.2784 459.977L82.7877 452.8L79.5662 443.582L67.9211 447.657L57.4967 417.83L69.1419 413.755L65.9204 404.537L45.411 411.714L47.4473 417.541ZM50.6688 426.758L56.8079 444.324C51.9099 443.891 46.3324 444.769 40.0753 446.959L29.8206 450.547L24.6844 435.851L50.6688 426.758Z" fill="#181D24"/>
<path fill-rule="evenodd" clip-rule="evenodd" d="M9.12561 375.104L2.66257 376.083L1.17487 366.245L46.6892 359.354L48.1769 369.191L41.6229 370.183C47.3413 373.106 50.724 378.029 51.7709 384.952C52.7168 391.206 51.2189 396.899 47.2771 402.031C43.3354 407.162 37.9965 410.237 31.2603 411.257C24.5242 412.277 18.5149 410.92 13.2324 407.186C7.94989 403.451 4.8357 398.457 3.88982 392.202C2.84292 385.279 4.58818 379.58 9.12561 375.104ZM39.6211 395.736C41.9387 392.59 42.7852 388.952 42.1608 384.823C41.5363 380.694 39.652 377.47 36.5079 375.151C33.3031 372.841 29.6071 372.003 25.4197 372.637C21.2324 373.271 17.98 375.161 15.6623 378.307C13.284 381.462 12.4071 385.105 13.0316 389.234C13.6561 393.363 15.5707 396.583 18.7755 398.893C21.9196 401.212 25.5853 402.054 29.7726 401.42C33.8993 400.795 37.1821 398.901 39.6211 395.736Z" fill="#181D24"/>
<path d="M381.154 19.3219L421.004 28.837L410.32 73.6409L400.648 71.3316L409.153 35.6677L388.646 30.7711L380.141 66.435L370.469 64.1257L381.154 19.3219Z" fill="#181D24"/>
<path fill-rule="evenodd" clip-rule="evenodd" d="M470.568 55.3592C468.317 49.1991 464.328 44.8559 458.599 42.3298C452.196 39.5064 446.23 39.7279 440.7 42.9943L443.373 36.9246L434.274 32.9125L408.286 91.9233L417.385 95.9354L427.446 73.0898C428.849 79.3462 432.724 83.8736 439.071 86.6722C444.856 89.2231 450.739 89.2669 456.72 86.8036C462.701 84.3402 467.065 79.9894 469.812 73.7511C472.535 67.5691 472.787 61.4384 470.568 55.3592ZM441.462 77.3576C437.643 75.6735 435.027 73.0097 433.613 69.3662C432.249 65.6103 432.408 61.8215 434.091 57.9999C435.799 54.122 438.474 51.4758 442.115 50.0613C445.781 48.5905 449.523 48.6972 453.343 50.3813C457.162 52.0654 459.766 54.7573 461.155 58.457C462.569 62.1005 462.421 65.8612 460.714 69.739C459.006 73.6169 456.319 76.2912 452.653 77.7619C449.012 79.1765 445.282 79.0417 441.462 77.3576Z" fill="#181D24"/>
<path fill-rule="evenodd" clip-rule="evenodd" d="M500.632 115.068C494.144 116.264 488.096 114.927 482.485 111.059C476.875 107.192 473.473 102.012 472.278 95.52C471.068 88.9427 472.378 82.8725 476.209 77.3094C480.039 71.7463 485.241 68.3592 491.814 67.1481C498.302 65.9527 504.351 67.289 509.961 71.1568C515.571 75.0246 518.973 80.2044 520.168 86.6962C521.378 93.2735 520.068 99.3437 516.238 104.907C512.407 110.47 507.205 113.857 500.632 115.068ZM484.396 82.9543C482.028 86.3934 481.198 90.0348 481.905 93.8786C482.613 97.7225 484.634 100.794 487.97 103.094C491.306 105.394 494.894 106.19 498.736 105.482C502.577 104.774 505.682 102.701 508.05 99.2619C510.418 95.8229 511.248 92.1814 510.541 88.3376C509.833 84.4937 507.812 81.4219 504.476 79.1221C501.14 76.8224 497.552 76.0264 493.71 76.7341C489.869 77.4419 486.764 79.5153 484.396 82.9543Z" fill="#181D24"/>
<path fill-rule="evenodd" clip-rule="evenodd" d="M542.62 149.584L568.53 123.658L543.727 98.8389L529.6 112.975C524.523 118.056 519.597 120.987 514.823 121.769L510.852 117.795L495.488 133.168L502.389 140.073L511.112 131.344L533.441 153.688L524.718 162.417L531.619 169.322L546.982 153.948L542.62 149.584ZM535.72 142.679L522.57 129.52C527.17 127.783 531.814 124.57 536.501 119.88L544.183 112.193L555.185 123.202L535.72 142.679Z" fill="#181D24"/>
<path d="M563.583 172.058L597.725 162.242L603.859 170.877L554.897 184C548.9 185.629 543.606 185.702 539.015 184.221C534.423 182.739 530.777 179.832 528.076 175.499L535.655 170.109C538.768 175.128 543.534 176.749 549.952 174.972L550.638 174.823L576.657 132.583L582.791 141.218L563.583 172.058Z" fill="#181D24"/>
<path d="M585.627 236.846L597.353 207.599L626.554 215.749L621.162 204.851L595.004 197.867L613.238 188.834L608.826 179.918L567.573 200.354L571.984 209.271L591.043 199.829L580.358 226.195L585.627 236.846Z" fill="#181D24"/>
<path d="M628.343 220.401L640.706 258.518L631.599 261.475L626.966 247.193L592.289 258.454L589.22 248.991L623.897 237.729L619.236 223.359L628.343 220.401Z" fill="#181D24"/>
</svg>
