<svg width="168" height="22" viewBox="0 0 168 22" fill="none" xmlns="http://www.w3.org/2000/svg">
<path d="M0 6.37991C0 2.85645 2.8563 0.000152588 6.37975 0.000152588H10.6329C14.1564 0.000152588 17.0127 2.85645 17.0127 6.37991V6.91155H12.2279V6.37991C12.2279 5.20551 11.2757 4.25332 10.1013 4.25332H6.9114C5.737 4.25332 4.78481 5.20551 4.78481 6.37991V14.8862C4.78481 16.0606 5.737 17.0128 6.9114 17.0128H10.1013C11.2757 17.0128 12.2279 16.0606 12.2279 14.8862V14.3546H17.0127C17.0127 18.1716 13.9183 21.266 10.1013 21.266H6.37975C2.8563 21.266 0 18.4097 0 14.8862V6.37991Z" fill="#1F73FA"/>
<path fill-rule="evenodd" clip-rule="evenodd" d="M61.6709 14.8862C61.6709 18.4096 58.8146 21.2659 55.2912 21.2659H45.1899V9.15527e-05H55.2912C58.8146 9.15527e-05 61.6709 2.8564 61.6709 6.37984V14.8862ZM56.8861 14.8862C56.8861 16.0607 55.934 17.0128 54.7595 17.0128H49.443V4.25326H54.7595C55.934 4.25326 56.8861 5.20536 56.8861 6.37984V14.8862Z" fill="#1F73FA"/>
<path fill-rule="evenodd" clip-rule="evenodd" d="M22.8608 5.8482C22.8608 2.61834 25.479 9.15527e-05 28.7089 9.15527e-05H33.4937C34.7049 9.15527e-05 35.8301 0.368283 36.7634 0.998847C38.319 2.04979 39.3418 3.82954 39.3418 5.8482V15.4178C39.3418 18.6477 36.7236 21.2659 33.4937 21.2659H28.7089C27.5995 21.2659 26.5623 20.9571 25.6785 20.4206C24.6326 19.7856 23.8016 18.8319 23.3203 17.6942C23.0244 16.9945 22.8608 16.2253 22.8608 15.4178V5.8482ZM28.812 4.29647C28.9504 4.26814 29.0937 4.25326 29.2405 4.25326H32.4304C32.6506 4.25326 32.8631 4.28675 33.0629 4.3489C33.6621 4.53534 34.1477 4.97971 34.3899 5.55212C34.4975 5.80653 34.557 6.08625 34.557 6.37984V14.8862C34.557 15.2368 34.4721 15.5676 34.3218 15.8592C34.0315 16.4222 33.4973 16.8389 32.859 16.9696C32.7205 16.9979 32.5772 17.0128 32.4304 17.0128H29.2405C29.018 17.0128 28.8034 16.9786 28.6018 16.9152C27.8724 16.6857 27.3125 16.0739 27.1572 15.3147C27.1288 15.1763 27.1139 15.033 27.1139 14.8862V6.37984C27.1139 6.16233 27.1466 5.95244 27.2073 5.75482C27.4333 5.01878 28.0481 4.4528 28.812 4.29647Z" fill="#1F73FA"/>
<path fill-rule="evenodd" clip-rule="evenodd" d="M112.177 5.8482C112.177 2.61838 114.796 9.15527e-05 118.025 9.15527e-05H122.81C126.04 9.15527e-05 128.658 2.61838 128.658 5.8482V15.4178C128.658 18.6476 126.04 21.2659 122.81 21.2659H118.025C114.796 21.2659 112.177 18.6476 112.177 15.4178V5.8482ZM116.43 6.37984C116.43 5.20536 117.382 4.25326 118.557 4.25326H121.747C122.921 4.25326 123.873 5.20536 123.873 6.37984V14.8862C123.873 16.0607 122.921 17.0128 121.747 17.0128H118.557C117.382 17.0128 116.43 16.0607 116.43 14.8862V6.37984Z" fill="white"/>
<path fill-rule="evenodd" clip-rule="evenodd" d="M72.3037 0H67.519V21.2658H72.3038V21.2658H81.3417V17.0127H72.3038V12.7595H81.3417V8.50633H72.3038V4.25317H81.3417V0H72.3038H72.3037Z" fill="#1F73FA"/>
<mask id="path-6-inside-1_2_6" fill="white">
<path d="M87.1899 9.15527e-05H91.9747V14.8862L96.7595 10.633L101.544 14.8862V9.15527e-05H106.329V21.2659H101.544L96.7595 17.0128L91.9747 21.2659H87.1899V9.15527e-05Z"/>
</mask>
<path d="M87.1899 9.15527e-05H91.9747V14.8862L96.7595 10.633L101.544 14.8862V9.15527e-05H106.329V21.2659H101.544L96.7595 17.0128L91.9747 21.2659H87.1899V9.15527e-05Z" fill="white"/>
<path d="M91.9747 9.15527e-05H482.975V-391H91.9747V9.15527e-05ZM87.1899 9.15527e-05V-391H-303.81V9.15527e-05H87.1899ZM91.9747 14.8862H-299.025V885.582L351.741 307.123L91.9747 14.8862ZM96.7595 10.633L356.526 -281.604L96.7595 -512.507L-163.007 -281.604L96.7595 10.633ZM101.544 14.8862L-158.222 307.123L492.544 885.582V14.8862H101.544ZM101.544 9.15527e-05V-391H-289.456V9.15527e-05H101.544ZM106.329 9.15527e-05H497.329V-391H106.329V9.15527e-05ZM106.329 21.2659V412.266H497.329V21.2659H106.329ZM101.544 21.2659L-158.222 313.503L-47.1136 412.266H101.544V21.2659ZM96.7595 17.0128L356.526 -275.224L96.7595 -506.128L-163.007 -275.224L96.7595 17.0128ZM91.9747 21.2659V412.266H240.633L351.741 313.503L91.9747 21.2659ZM87.1899 21.2659H-303.81V412.266H87.1899V21.2659ZM91.9747 -391H87.1899V391H91.9747V-391ZM482.975 14.8862V9.15527e-05H-299.025V14.8862H482.975ZM351.741 307.123L356.526 302.87L-163.007 -281.604L-167.792 -277.351L351.741 307.123ZM-163.007 302.87L-158.222 307.123L361.311 -277.351L356.526 -281.604L-163.007 302.87ZM-289.456 9.15527e-05V14.8862H492.544V9.15527e-05H-289.456ZM106.329 -391H101.544V391H106.329V-391ZM497.329 21.2659V9.15527e-05H-284.671V21.2659H497.329ZM101.544 412.266H106.329V-369.734H101.544V412.266ZM361.311 -270.971L356.526 -275.224L-163.007 309.25L-158.222 313.503L361.311 -270.971ZM-163.007 -275.224L-167.792 -270.971L351.741 313.503L356.526 309.25L-163.007 -275.224ZM87.1899 412.266H91.9747V-369.734H87.1899V412.266ZM-303.81 9.15527e-05V21.2659H478.19V9.15527e-05H-303.81Z" fill="white" mask="url(#path-6-inside-1_2_6)"/>
<path d="M139.291 9.15527e-05H134.507V21.2659H148.329V16.4811H139.291V9.15527e-05Z" fill="white"/>
<path d="M154.177 9.15527e-05H168V4.25326H158.962V8.50643H165.342V12.7596H158.962V21.2659H154.177V9.15527e-05Z" fill="white"/>
</svg>
